<svg width="40" height="35" viewBox="0 0 40 35" fill="none" xmlns="http://www.w3.org/2000/svg">
<path fill-rule="evenodd" clip-rule="evenodd" d="M17.1135 3.0215H16.9769C16.7669 3.00878 16.557 3.0037 16.347 2.99861H16.347H16.3268H15.8917C15.4945 2.99861 15.0897 3.00878 14.6875 3.02912C14.6572 3.02692 14.6267 3.02692 14.5964 3.02912C10.9521 3.23561 7.38159 4.14649 4.08036 5.7119L3.64778 5.92042V28.0616L4.65967 27.7183C5.54761 27.4131 6.49372 27.1385 7.47273 26.8842C10.1192 26.2048 12.8366 25.8437 15.5678 25.8085V28.7176C15.2061 28.7202 14.8545 28.7303 14.5028 28.7481H14.4193C12.3174 28.8634 10.2315 29.1837 8.19117 29.7043C5.60704 30.3512 3.11421 31.3226 0.771484 32.5956V4.19886C3.20457 2.77973 5.82521 1.71385 8.55545 1.03294C10.9526 0.414027 13.4168 0.0962821 15.8917 0.0869751H16.3192C16.8302 0.0996897 17.3285 0.122576 17.7965 0.158177C19.0296 0.244751 20.2527 0.439603 21.452 0.740503V3.60382C20.2873 3.33248 19.103 3.15393 17.9104 3.06981C17.8862 3.06777 17.862 3.0657 17.8377 3.06363C17.591 3.04258 17.3439 3.0215 17.1135 3.0215ZM22.1527 5.94836C22.7876 5.99667 23.4453 6.01956 24.1107 6.01956C26.7124 6.01005 29.303 5.67781 31.8238 5.03037C34.4067 4.38094 36.8985 3.40875 39.2409 2.13654V30.0272C36.8065 31.4455 34.1852 32.5113 31.4545 33.1931C29.057 33.8097 26.5929 34.1265 24.1182 34.1365C22.2432 34.1517 20.3736 33.9313 18.5529 33.4805V5.40926C18.9829 5.50844 19.4256 5.59998 19.8759 5.67627C20.6146 5.80087 21.3937 5.89242 22.1527 5.94836ZM36.3469 6.16451L35.335 6.50526C34.4041 6.81804 33.4656 7.09775 32.522 7.34696C29.7748 8.05293 26.9513 8.41507 24.1157 8.42515C23.4555 8.42515 22.8483 8.40735 22.2614 8.36921L21.4545 8.31581V28.4048V31.0927L22.1476 31.1537C22.7901 31.2096 23.4529 31.2376 24.1208 31.2376C26.3543 31.2281 28.578 30.9403 30.7411 30.3806C32.5222 29.9339 34.2551 29.3112 35.9144 28.5218L36.3469 28.3133V6.16451Z" fill="#AFB1B8"/>
</svg>
